<svg width="1440" height="192" viewBox="0 0 1440 192" fill="none" xmlns="http://www.w3.org/2000/svg">
<path d="M379 69C191.4 92.2 48.1667 37 0 6.5V192H1435C1403.83 183.167 1332.5 171.5 1122 171.5C911.5 171.5 843.5 138 755.5 98.5C667.5 59 566.6 45.8 379 69Z" fill="#1D4185"/>
<path d="M350.106 98.4584C157.354 128.413 7.85755 75.9365 -42.7964 45.954L-36.8718 237.645L1443.21 191.901C1410.78 183.766 1336.83 173.984 1119.72 180.694C902.608 187.405 831.402 154.954 739.376 116.941C647.35 78.9279 542.859 68.5038 350.106 98.4584Z" fill="white"/>
</svg>
